<?xml version="1.0" encoding="utf-8"?>
<?xml-stylesheet type="text/xsl" href="rss1.xsl"?>
<rss version="2.0" xmlns:atom="http://www.w3.org/2005/Atom" xmlns:content="http://purl.org/rss/1.0/modules/content/" xmlns:dc="http://purl.org/dc/elements/1.1/" xmlns:media="http://search.yahoo.com/mrss/">
<channel>
 <title>Getty</title>
 <link>http://www.gettyimg.com/</link>
 <atom:link href="http://www.gettyimg.com/" rel="self" type="application/rss+xml" />

 
                <item>
                <title><![CDATA[【UPSCALED】Marshmello x DuckTales - FLY [4K AI Upscale | HEVC 10-bit | PCM 16-bit 48 kHz]]]></title>
                <link><![CDATA[https://sharemania.us/threads/marshmello-x-ducktales-fly-4k-ai-upscale-hevc-10-bit-pcm-16-bit-48-khz.227638/]]></link>
                <description><![CDATA[<article>
<blockquote class="messageText SelectQuoteContainer ugc baseHtml">
<b><img src="https://images2.imgbox.com/0f/00/QlkYleyH_o.jpg" class="bbCodeImage LbImage" alt="[​IMG]" data-url="https://images2.imgbox.com/0f/00/QlkYleyH_o.jpg" style=""> <br>
<img src="https://images2.imgbox.com/26/b5/0REU8zFc_o.jpg" class="bbCodeImage LbImage" alt="[​IMG]" data-url="https://images2.imgbox.com/26/b5/0REU8zFc_o.jpg" style=""> <br>
<br>
Genre: <span style="color: #0059b3">Electronic</span> <br>
Style: <span style="color: #0059b3">Dance-pop</span> <br>
Year: <span style="color: #0059b3">2018</span><br>
Source: <span style="color: #0059b3">WebMaster</span></b><br>
<br>
"<b>Fly</b>" is a song recorded by American electronic music producer and DJ Marshmello, featuring American singer and songwriter Leah Culver. It was released on March 9, 2018.<br>
<br>
Two music videos were produced for the song. The first one is completely done in computer animation and features Marshmello hanging onto numerous colorful balloons while floating over New York City. As the sun begins to set, Marshmello lets go of the balloons and proceeds to fly through the sky. These events are revealed to be imagined as Marshmello sits on a bench, presumably in Central Park, while holding only a single balloon.<br>
<br>
The second video was made in conjunction with Disney Channel to promote the 2017 reboot series <i>DuckTales</i>. This video mixes live-action with the series' traditionally animated style and features the characters of Donald Duck, Scrooge McDuck, Huey, Dewey, and Louie Duck, and Webby Vanderquack traveling through space via a rocket ship. The ship crashes on a planet resembling Marshmello's head with a soft and bouncy terrain. Marshmello himself appears, apparently as the sole occupant of the planet, and aids the Ducks in rebuilding their ship using electronic musical instruments, which they are seen using to perform the track. The Ducks leave the planet with Marshmello in tow.<br>
<br>
<b>Release Info</b><br>
The video track is upscaled to 4K with Topaz Video AI and encoded to HEVC 10-bit.<br>
The PCM track is lossless and is the default track from WebMaster, left as is.<br>
The timed lyrics are synced &amp; edited. Enable the subtitles to see the lyrics.<br>
<br>
<div class="ToggleTriggerAnchor bbCodeSpoilerContainer">
<button type="button" class="button bbCodeSpoilerButton ToggleTrigger Tooltip JsOnly" data-target="> .SpoilerTarget"><span>Spoiler: <span class="SpoilerTitle">Media Info</span></span></button>
<div class="SpoilerTarget bbCodeSpoilerText">
<div class="bbCodeBlock bbCodeCode">
<div class="type">Code:</div>
<pre>General
Unique ID                      : 63924551103664259207200720772098788233 (0x30176BB3FDE252BFB2FB9601D5B98B89)
Complete name                  : Marshmello x DuckTales - FLY.mkv
Format                         : Matroska
Format version                 : Version 4 / Version 2
File size                      : 377 MiB
Duration                       : 2 min 31 s
Overall bit rate               : 20.8 Mb/s
Frame rate                     : 23.976 FPS
Encoded date                   : 2023-09-02 23:33:23 UTC
Writing application            : mkvmerge v76.0 ('Celebration') 64-bit
Writing library                : libebml v1.4.4 + libmatroska v1.7.1

Video
ID                             : 1
Format                         : HEVC
Format/Info                    : High Efficiency Video Coding
Format profile                 : Main 10@L5@Main
Codec ID                       : V_MPEGH/ISO/HEVC
Duration                       : 2 min 31 s
Bit rate                       : 19.3 Mb/s
Width                          : 3 840 pixels
Height                         : 2 160 pixels
Display aspect ratio           : 16:9
Frame rate mode                : Constant
Frame rate                     : 23.976 (24000/1001) FPS
Color space                    : YUV
Chroma subsampling             : 4:2:0
Bit depth                      : 10 bits
Bits/(Pixel*Frame)             : 0.097
Stream size                    : 349 MiB (93%)
Language                       : English
Default                        : Yes
Forced                         : No
Color range                    : Limited
Color primaries                : BT.709
Transfer characteristics       : BT.709
Matrix coefficients            : BT.709

Audio
ID                             : 2
Format                         : PCM
Format settings                : Little / Signed
Codec ID                       : A_PCM/INT/LIT
Duration                       : 2 min 31 s
Bit rate mode                  : Constant
Bit rate                       : 1 536 kb/s
Channel(s)                     : 2 channels
Sampling rate                  : 48.0 kHz
Frame rate                     : 46.953 FPS (1022 SPF)
Bit depth                      : 16 bits
Stream size                    : 27.8 MiB (7%)
Language                       : English
Default                        : Yes
Forced                         : No

Text
ID                             : 3
Format                         : UTF-8
Codec ID                       : S_TEXT/UTF8
Codec ID/Info                  : UTF-8 Plain Text
Duration                       : 1 min 53 s
Bit rate                       : 9 b/s
Frame rate                     : 0.062 FPS
Count of elements              : 7
Stream size                    : 134 Bytes (0%)
Title                          : Lyrics
Language                       : English
Default                        : No
Forced                         : No
</pre>
</div></div>
</div><br>
<div class="bbCodeBlock bbCodeVfcHH HiddenContent">
<div class="attribution type">Hidden Content:</div>
<blockquote>You must reply before you can see the hidden data contained here.</blockquote>
</div>
<div class="messageTextEndMarker">&nbsp;</div>
</blockquote>
</article>]]></description>
                <author><![CDATA[ADHDerby]]></author>
                </item>

                </channel></rss>